# xmcd
#
# Track frame offsets:
# 150
# 16175
# 30689
# 50291
# 69376
# 84159
# 113379
# 127666
# 146228
# 168949
#
# Disc length: 2566 seconds
#
#
# Revision: 2
# Processed by: cddbd v1.5.1PL2 Copyright (c) Steve Scherf et al.
# Submitted via: FreeRIP 2.944 
#
DISCID=6e0a040a
DTITLE=Travis Tritt - Ten Feet Tall And Bulletproof
DYEAR=1994
DGENRE=Country
TTITLE0=Ten Feet Tall And Bulletproof
TTITLE1=Walkin' All Over My Heart
TTITLE2=Foolish Pride
TTITLE3=Outlaws Like Us
TTITLE4=Hard Times And Misery
TTITLE5=Tell Me I Was Dreaming
TTITLE6=Wishful Thinking
TTITLE7=Between An Old Memory And Me
TTITLE8=No Vacation From The Blues
TTITLE9=Southern Justice
EXTD=
EXTT0=
EXTT1=
EXTT2=
EXTT3=
EXTT4=
EXTT5=
EXTT6=
EXTT7=
EXTT8=
EXTT9=
PLAYORDER=
